<svg width="11" height="7" viewBox="0 0 11 7" fill="none" xmlns="http://www.w3.org/2000/svg">
<path d="M5.8577 0.677618L5.85768 0.677636L5.86138 0.681297L10.3402 5.10796C10.385 5.15701 10.4201 5.21416 10.4435 5.27636C10.4678 5.34103 10.4791 5.40987 10.4766 5.47891C10.4742 5.54796 10.4581 5.61584 10.4293 5.67863C10.4005 5.74142 10.3595 5.79788 10.3087 5.84475L10.3019 5.8511L10.2952 5.85771C10.2463 5.90617 10.1884 5.94452 10.1247 5.97054C10.061 5.99656 9.99274 6.00975 9.92392 6.00936L9.9231 6.00935C9.78622 6.00878 9.65503 5.95455 9.5577 5.85835C9.55748 5.85813 9.55726 5.85792 9.55704 5.8577L5.85618 2.15684L5.48641 1.78707L5.11664 2.15684L1.41537 5.85811C1.41522 5.85827 1.41506 5.85842 1.4149 5.85858C1.31697 5.95568 1.18464 6.01018 1.0467 6.01018C0.908551 6.01018 0.776012 5.95551 0.678035 5.85811L0.677618 5.8577C0.628603 5.80908 0.589699 5.75125 0.563151 5.68752C0.536603 5.6238 0.522934 5.55545 0.522934 5.48641C0.522934 5.41738 0.536603 5.34903 0.563151 5.2853C0.589699 5.22158 0.628603 5.16374 0.677618 5.11513L0.677621 5.11513L0.679136 5.11362L5.11362 0.679136L5.11362 0.679139L5.11513 0.677618C5.16374 0.628603 5.22158 0.5897 5.2853 0.563151C5.34903 0.536603 5.41738 0.522934 5.48641 0.522934C5.55545 0.522934 5.6238 0.536603 5.68752 0.563151C5.75125 0.5897 5.80908 0.628603 5.8577 0.677618Z" fill="black" stroke="#424C5D"/>
</svg>
