<svg width="24" height="24" viewBox="0 0 24 24" fill="none" xmlns="http://www.w3.org/2000/svg">
<path fill-rule="evenodd" clip-rule="evenodd" d="M12 18C15.3137 18 18 15.3137 18 12C18 8.68629 15.3137 6 12 6C8.68629 6 6 8.68629 6 12C6 15.3137 8.68629 18 12 18Z" fill="#535763"/>
<path fill-rule="evenodd" clip-rule="evenodd" d="M11.995 1.5C12.5473 1.5 12.995 1.94772 12.995 2.5V3.5C12.995 4.05228 12.5473 4.5 11.995 4.5C11.4427 4.5 10.995 4.05228 10.995 3.5V2.5C10.995 1.94772 11.4427 1.5 11.995 1.5Z" fill="#535763"/>
<path fill-rule="evenodd" clip-rule="evenodd" d="M11.995 19.5C12.5473 19.5 12.995 19.9477 12.995 20.5V21.4968C12.995 22.0491 12.5473 22.4968 11.995 22.4968C11.4427 22.4968 10.995 22.0491 10.995 21.4968V20.5C10.995 19.9477 11.4427 19.5 11.995 19.5Z" fill="#535763"/>
<path fill-rule="evenodd" clip-rule="evenodd" d="M1.49658 11.9984C1.49658 11.4461 1.9443 10.9984 2.49658 10.9984H3.49658C4.04887 10.9984 4.49658 11.4461 4.49658 11.9984C4.49658 12.5507 4.04887 12.9984 3.49658 12.9984H2.49658C1.9443 12.9984 1.49658 12.5507 1.49658 11.9984Z" fill="#535763"/>
<path fill-rule="evenodd" clip-rule="evenodd" d="M19.4966 11.9984C19.4966 11.4461 19.9443 10.9984 20.4966 10.9984H21.4934C22.0456 10.9984 22.4934 11.4461 22.4934 11.9984C22.4934 12.5507 22.0456 12.9984 21.4934 12.9984H20.4966C19.9443 12.9984 19.4966 12.5507 19.4966 11.9984Z" fill="#535763"/>
<path fill-rule="evenodd" clip-rule="evenodd" d="M4.57159 19.4219C4.18106 19.0313 4.18106 18.3982 4.57159 18.0077L5.27869 17.3005C5.66922 16.91 6.30238 16.91 6.69291 17.3005C7.08343 17.6911 7.08343 18.3242 6.69291 18.7148L5.9858 19.4219C5.59527 19.8124 4.96211 19.8124 4.57159 19.4219Z" fill="#535763"/>
<path fill-rule="evenodd" clip-rule="evenodd" d="M17.2995 6.69394C16.909 6.30342 16.909 5.67025 17.2995 5.27973L18.0043 4.5749C18.3949 4.18438 19.028 4.18438 19.4185 4.5749C19.8091 4.96543 19.8091 5.59859 19.4185 5.98911L18.7137 6.69394C18.3232 7.08447 17.69 7.08447 17.2995 6.69394Z" fill="#535763"/>
<path fill-rule="evenodd" clip-rule="evenodd" d="M4.57159 4.5749C4.96211 4.18438 5.59527 4.18438 5.9858 4.5749L6.69291 5.28201C7.08343 5.67253 7.08343 6.3057 6.69291 6.69622C6.30238 7.08675 5.66922 7.08675 5.27869 6.69622L4.57159 5.98911C4.18106 5.59859 4.18106 4.96543 4.57159 4.5749Z" fill="#535763"/>
<path fill-rule="evenodd" clip-rule="evenodd" d="M17.2995 17.3028C17.69 16.9123 18.3232 16.9123 18.7137 17.3028L19.4186 18.0077C19.8091 18.3982 19.8091 19.0313 19.4186 19.4219C19.028 19.8124 18.3949 19.8124 18.0043 19.4219L17.2995 18.717C16.909 18.3265 16.909 17.6933 17.2995 17.3028Z" fill="#535763"/>
</svg>
