<svg width="24" height="24" viewBox="0 0 24 24" fill="none" xmlns="http://www.w3.org/2000/svg">
<path fill-rule="evenodd" clip-rule="evenodd" d="M16.7121 13.8056C17.5407 12.7721 18.0349 11.4639 18.0349 10.0348C18.0349 6.70186 15.333 4 12.0001 4C8.6672 4 5.96533 6.70186 5.96533 10.0348C5.96533 11.4637 6.45949 12.7718 7.28786 13.8053L7.29382 13.8127C7.4692 14.0312 7.63157 14.2613 7.80026 14.4849C8.09325 14.8734 8.5064 15.4189 8.98644 16.0462C9.88098 17.2153 10.9984 18.6565 12.0008 19.8938C13.0064 18.6539 14.1264 17.2104 15.0227 16.0398C15.5036 15.4117 15.9174 14.8657 16.2108 14.4769C16.3786 14.2545 16.5379 14.023 16.7121 13.8056ZM18.2755 15.0589C18.2755 15.0589 18.2738 15.0611 18.2726 15.0627C18.2214 15.1312 17.7512 15.7595 17.0698 16.6544C16.0589 17.9819 14.5832 19.8961 13.3216 21.4393C12.6314 22.2834 11.369 22.2831 10.6793 21.4386C8.52295 18.7985 5.73409 15.0646 5.73409 15.0646L5.72759 15.0565C4.62491 13.681 3.96533 11.9349 3.96533 10.0348C3.96533 5.5973 7.56263 2 12.0001 2C16.4376 2 20.0349 5.5973 20.0349 10.0348C20.0349 11.217 19.7796 12.3396 19.321 13.3505C19.0436 13.962 18.6919 14.5326 18.2773 15.0507L18.2744 15.0543L18.2726 15.0565H18.2773L18.2755 15.0589Z" fill="#535763"/>
<path fill-rule="evenodd" clip-rule="evenodd" d="M12 11C12.5523 11 13 10.5523 13 10C13 9.44771 12.5523 9 12 9C11.4477 9 11 9.44771 11 10C11 10.5523 11.4477 11 12 11ZM15 10C15 11.6569 13.6569 13 12 13C10.3431 13 9 11.6569 9 10C9 8.34315 10.3431 7 12 7C13.6569 7 15 8.34315 15 10Z" fill="#535763"/>
</svg>
