<svg width="18" height="18" viewBox="0 0 18 18" fill="none" xmlns="http://www.w3.org/2000/svg">
<path fill-rule="evenodd" clip-rule="evenodd" d="M5.25409 2.65854C3.33269 3.96656 2.07439 6.17047 2.07439 8.665C2.07439 12.6748 5.32497 15.9254 9.33476 15.9254C11.8293 15.9254 14.0332 14.6671 15.3412 12.7457C10.0418 12.1664 5.8334 7.9579 5.25409 2.65854ZM16.5951 10.7394C17.4934 10.7394 18.2669 11.531 17.9114 12.356C16.4808 15.6757 13.1792 17.9998 9.33476 17.9998C4.17931 17.9998 0 13.8204 0 8.665C0 4.82056 2.32402 1.51892 5.64379 0.0883455C6.46872 -0.267136 7.26037 0.506384 7.26037 1.40464C7.26037 6.56009 11.4397 10.7394 16.5951 10.7394Z" fill="#535763"/>
</svg>
