<svg width="21" height="20" viewBox="0 0 21 20" fill="none" xmlns="http://www.w3.org/2000/svg">
<path d="M10.0282 0C8.71497 0 7.41461 0.258658 6.20135 0.761205C4.9881 1.26375 3.8857 2.00035 2.95712 2.92893C1.08175 4.8043 0.0281864 7.34784 0.0281864 10C0.0194442 12.3091 0.818979 14.5485 2.28819 16.33L0.288186 18.33C0.149429 18.4706 0.0554325 18.6492 0.0180584 18.8432C-0.0193158 19.0372 0.0016069 19.2379 0.0781863 19.42C0.161244 19.5999 0.29589 19.7511 0.465033 19.8544C0.634176 19.9577 0.830187 20.0083 1.02819 20H10.0282C12.6804 20 15.2239 18.9464 17.0993 17.0711C18.9746 15.1957 20.0282 12.6522 20.0282 10C20.0282 7.34784 18.9746 4.8043 17.0993 2.92893C15.2239 1.05357 12.6804 0 10.0282 0ZM10.0282 18H3.43819L4.36819 17.07C4.55444 16.8826 4.65898 16.6292 4.65898 16.365C4.65898 16.1008 4.55444 15.8474 4.36819 15.66C3.05877 14.352 2.24336 12.6305 2.06088 10.7888C1.87839 8.94705 2.34013 7.09901 3.36741 5.55952C4.3947 4.02004 5.92398 2.88436 7.6947 2.34597C9.46543 1.80759 11.368 1.8998 13.0784 2.60691C14.7888 3.31402 16.201 4.59227 17.0746 6.22389C17.9482 7.85551 18.2291 9.73954 17.8693 11.555C17.5096 13.3705 16.5315 15.005 15.1017 16.1802C13.672 17.3554 11.8789 17.9985 10.0282 18ZM15.0282 9H5.02819C4.76297 9 4.50862 9.10536 4.32108 9.29289C4.13354 9.48043 4.02819 9.73478 4.02819 10C4.02819 10.2652 4.13354 10.5196 4.32108 10.7071C4.50862 10.8946 4.76297 11 5.02819 11H15.0282C15.2934 11 15.5478 10.8946 15.7353 10.7071C15.9228 10.5196 16.0282 10.2652 16.0282 10C16.0282 9.73478 15.9228 9.48043 15.7353 9.29289C15.5478 9.10536 15.2934 9 15.0282 9ZM13.0282 13H7.02819C6.76297 13 6.50862 13.1054 6.32108 13.2929C6.13354 13.4804 6.02819 13.7348 6.02819 14C6.02819 14.2652 6.13354 14.5196 6.32108 14.7071C6.50862 14.8946 6.76297 15 7.02819 15H13.0282C13.2934 15 13.5478 14.8946 13.7353 14.7071C13.9228 14.5196 14.0282 14.2652 14.0282 14C14.0282 13.7348 13.9228 13.4804 13.7353 13.2929C13.5478 13.1054 13.2934 13 13.0282 13ZM7.02819 7H13.0282C13.2934 7 13.5478 6.89464 13.7353 6.70711C13.9228 6.51957 14.0282 6.26522 14.0282 6C14.0282 5.73478 13.9228 5.48043 13.7353 5.29289C13.5478 5.10536 13.2934 5 13.0282 5H7.02819C6.76297 5 6.50862 5.10536 6.32108 5.29289C6.13354 5.48043 6.02819 5.73478 6.02819 6C6.02819 6.26522 6.13354 6.51957 6.32108 6.70711C6.50862 6.89464 6.76297 7 7.02819 7Z" fill="#424C5D"/>
</svg>
