<svg width="24" height="24" viewBox="0 0 24 24" fill="none" xmlns="http://www.w3.org/2000/svg">
<path fill-rule="evenodd" clip-rule="evenodd" d="M10.054 2.65825C11.1752 1.7027 12.8244 1.7027 13.9457 2.65825L14.016 2.71817C14.4965 3.12764 15.0939 3.3751 15.7232 3.42532L15.8153 3.43267C17.2838 3.54986 18.45 4.71599 18.5671 6.18452L18.5745 6.27662C18.6247 6.90592 18.8722 7.50334 19.2816 7.98383L19.3416 8.05415C20.2971 9.17542 20.2971 10.8246 19.3416 11.9459L19.2816 12.0162C18.8722 12.4967 18.6247 13.0941 18.5745 13.7234L18.5671 13.8155C18.484 14.8576 17.8726 15.7474 16.9998 16.2182V21.156C16.9998 21.8258 16.3541 22.3063 15.7125 22.1138L11.9998 21L8.28716 22.1138C7.64555 22.3063 6.99982 21.8258 6.99982 21.156V16.2182C6.12701 15.7474 5.51565 14.8576 5.43249 13.8155L5.42514 13.7234C5.37492 13.0941 5.12746 12.4967 4.71799 12.0162L4.65806 11.9459C3.70252 10.8246 3.70252 9.17542 4.65806 8.05415L4.71799 7.98383C5.12746 7.50334 5.37492 6.90592 5.42514 6.27662L5.43249 6.18452C5.54968 4.71599 6.71581 3.54986 8.18434 3.43267L8.27644 3.42532C8.90573 3.3751 9.50315 3.12764 9.98365 2.71817L10.054 2.65825ZM12.6484 4.18047L12.7188 4.2404C13.5196 4.92285 14.5153 5.33529 15.5641 5.41898L15.6562 5.42633C16.1457 5.4654 16.5344 5.85411 16.5735 6.34362L16.5808 6.43571C16.6645 7.48454 17.077 8.48024 17.7594 9.28106L17.8193 9.35138C18.1379 9.72514 18.1379 10.2749 17.8193 10.6486L17.7594 10.7189C17.077 11.5198 16.6645 12.5155 16.5808 13.5643L16.5735 13.6564C16.5344 14.1459 16.1457 14.5346 15.6562 14.5737L15.5641 14.581C14.5153 14.6647 13.5196 15.0771 12.7188 15.7596L12.6484 15.8195C12.2747 16.138 11.725 16.138 11.3512 15.8195L11.2809 15.7596C10.4801 15.0771 9.48436 14.6647 8.43553 14.581L8.34343 14.5737C7.85392 14.5346 7.46521 14.1459 7.42615 13.6564L7.4188 13.5643C7.3351 12.5155 6.92267 11.5198 6.24022 10.7189L6.18029 10.6486C5.86178 10.2749 5.86178 9.72514 6.18029 9.35138L6.24022 9.28106C6.92267 8.48025 7.3351 7.48455 7.4188 6.43571L7.42615 6.34362C7.46521 5.85411 7.85392 5.4654 8.34343 5.42633L8.43553 5.41898C9.48436 5.33529 10.4801 4.92285 11.2809 4.2404L11.3512 4.18047C11.725 3.86196 12.2747 3.86196 12.6484 4.18047ZM8.99982 16.7236V19.8119L11.4251 19.0843C11.8 18.9719 12.1996 18.9719 12.5745 19.0843L14.9998 19.8119V16.7236C14.6415 16.8449 14.3073 17.0336 14.016 17.2818L13.9457 17.3418C12.8244 18.2973 11.1752 18.2973 10.054 17.3418L9.98365 17.2818C9.69236 17.0336 9.3581 16.8449 8.99982 16.7236Z" fill="#535763"/>
<path fill-rule="evenodd" clip-rule="evenodd" d="M12 11C12.5523 11 13 10.5523 13 10C13 9.44772 12.5523 9 12 9C11.4477 9 11 9.44772 11 10C11 10.5523 11.4477 11 12 11ZM12 13C13.6569 13 15 11.6569 15 10C15 8.34315 13.6569 7 12 7C10.3431 7 9 8.34315 9 10C9 11.6569 10.3431 13 12 13Z" fill="#535763"/>
</svg>
