<svg width="34" height="34" viewBox="0 0 34 34" fill="none" xmlns="http://www.w3.org/2000/svg">
<path d="M17 0C7.65 0 0 7.65 0 17C0 26.35 7.65 34 17 34C26.35 34 34 26.35 34 17C34 7.65 26.35 0 17 0ZM23.29 18.19L18.19 23.29C17.51 23.97 16.49 23.97 15.81 23.29C15.13 22.61 15.13 21.59 15.81 20.91L18.02 18.7H11.9C10.88 18.7 10.2 18.02 10.2 17C10.2 15.98 10.88 15.3 11.9 15.3H18.02L15.81 13.09C15.13 12.41 15.13 11.39 15.81 10.71C16.49 10.03 17.51 10.03 18.19 10.71L23.29 15.81C23.97 16.49 23.97 17.51 23.29 18.19Z" fill="#0061FF"/>
</svg>
