<svg width="17" height="19" viewBox="0 0 17 19" fill="none" xmlns="http://www.w3.org/2000/svg">
<path d="M8.50033 15.3006C8.66845 15.3006 8.8328 15.2507 8.97259 15.1573C9.11237 15.0639 9.22132 14.9312 9.28566 14.7759C9.35 14.6205 9.36683 14.4496 9.33403 14.2847C9.30123 14.1198 9.22028 13.9684 9.1014 13.8495C8.98252 13.7306 8.83106 13.6497 8.66617 13.6169C8.50128 13.5841 8.33036 13.6009 8.17504 13.6652C8.01972 13.7296 7.88696 13.8385 7.79356 13.9783C7.70015 14.1181 7.6503 14.2824 7.6503 14.4506C7.6503 14.676 7.73986 14.8922 7.89927 15.0516C8.05868 15.211 8.27489 15.3006 8.50033 15.3006ZM12.7505 15.3006C12.9186 15.3006 13.083 15.2507 13.2228 15.1573C13.3625 15.0639 13.4715 14.9312 13.5358 14.7759C13.6002 14.6205 13.617 14.4496 13.5842 14.2847C13.5514 14.1198 13.4704 13.9684 13.3516 13.8495C13.2327 13.7306 13.0812 13.6497 12.9163 13.6169C12.7514 13.5841 12.5805 13.6009 12.4252 13.6652C12.2699 13.7296 12.1371 13.8385 12.0437 13.9783C11.9503 14.1181 11.9005 14.2824 11.9005 14.4506C11.9005 14.676 11.99 14.8922 12.1494 15.0516C12.3088 15.211 12.5251 15.3006 12.7505 15.3006ZM12.7505 11.9005C12.9186 11.9005 13.083 11.8506 13.2228 11.7572C13.3625 11.6638 13.4715 11.531 13.5358 11.3757C13.6002 11.2204 13.617 11.0495 13.5842 10.8846C13.5514 10.7197 13.4704 10.5682 13.3516 10.4494C13.2327 10.3305 13.0812 10.2495 12.9163 10.2167C12.7514 10.1839 12.5805 10.2008 12.4252 10.2651C12.2699 10.3294 12.1371 10.4384 12.0437 10.5782C11.9503 10.718 11.9005 10.8823 11.9005 11.0504C11.9005 11.2759 11.99 11.4921 12.1494 11.6515C12.3088 11.8109 12.5251 11.9005 12.7505 11.9005ZM8.50033 11.9005C8.66845 11.9005 8.8328 11.8506 8.97259 11.7572C9.11237 11.6638 9.22132 11.531 9.28566 11.3757C9.35 11.2204 9.36683 11.0495 9.33403 10.8846C9.30123 10.7197 9.22028 10.5682 9.1014 10.4494C8.98252 10.3305 8.83106 10.2495 8.66617 10.2167C8.50128 10.1839 8.33036 10.2008 8.17504 10.2651C8.01972 10.3294 7.88696 10.4384 7.79356 10.5782C7.70015 10.718 7.6503 10.8823 7.6503 11.0504C7.6503 11.2759 7.73986 11.4921 7.89927 11.6515C8.05868 11.8109 8.27489 11.9005 8.50033 11.9005ZM14.4506 1.70007H13.6005V0.850033C13.6005 0.62459 13.511 0.408381 13.3516 0.248969C13.1922 0.0895568 12.9759 0 12.7505 0C12.5251 0 12.3088 0.0895568 12.1494 0.248969C11.99 0.408381 11.9005 0.62459 11.9005 0.850033V1.70007H5.1002V0.850033C5.1002 0.62459 5.01064 0.408381 4.85123 0.248969C4.69182 0.0895568 4.47561 0 4.25017 0C4.02472 0 3.80851 0.0895568 3.6491 0.248969C3.48969 0.408381 3.40013 0.62459 3.40013 0.850033V1.70007H2.5501C1.87377 1.70007 1.22514 1.96874 0.746907 2.44697C0.268671 2.92521 0 3.57384 0 4.25017V16.1506C0 16.827 0.268671 17.4756 0.746907 17.9538C1.22514 18.4321 1.87377 18.7007 2.5501 18.7007H14.4506C15.1269 18.7007 15.7755 18.4321 16.2538 17.9538C16.732 17.4756 17.0007 16.827 17.0007 16.1506V4.25017C17.0007 3.57384 16.732 2.92521 16.2538 2.44697C15.7755 1.96874 15.1269 1.70007 14.4506 1.70007ZM15.3006 16.1506C15.3006 16.3761 15.211 16.5923 15.0516 16.7517C14.8922 16.9111 14.676 17.0007 14.4506 17.0007H2.5501C2.32466 17.0007 2.10845 16.9111 1.94904 16.7517C1.78962 16.5923 1.70007 16.3761 1.70007 16.1506V8.50033H15.3006V16.1506ZM15.3006 6.80026H1.70007V4.25017C1.70007 4.02472 1.78962 3.80851 1.94904 3.6491C2.10845 3.48969 2.32466 3.40013 2.5501 3.40013H3.40013V4.25017C3.40013 4.47561 3.48969 4.69182 3.6491 4.85123C3.80851 5.01064 4.02472 5.1002 4.25017 5.1002C4.47561 5.1002 4.69182 5.01064 4.85123 4.85123C5.01064 4.69182 5.1002 4.47561 5.1002 4.25017V3.40013H11.9005V4.25017C11.9005 4.47561 11.99 4.69182 12.1494 4.85123C12.3088 5.01064 12.5251 5.1002 12.7505 5.1002C12.9759 5.1002 13.1922 5.01064 13.3516 4.85123C13.511 4.69182 13.6005 4.47561 13.6005 4.25017V3.40013H14.4506C14.676 3.40013 14.8922 3.48969 15.0516 3.6491C15.211 3.80851 15.3006 4.02472 15.3006 4.25017V6.80026ZM4.25017 11.9005C4.41829 11.9005 4.58263 11.8506 4.72242 11.7572C4.86221 11.6638 4.97116 11.531 5.03549 11.3757C5.09983 11.2204 5.11667 11.0495 5.08387 10.8846C5.05107 10.7197 4.97011 10.5682 4.85123 10.4494C4.73235 10.3305 4.58089 10.2495 4.416 10.2167C4.25111 10.1839 4.0802 10.2008 3.92487 10.2651C3.76955 10.3294 3.63679 10.4384 3.54339 10.5782C3.44999 10.718 3.40013 10.8823 3.40013 11.0504C3.40013 11.2759 3.48969 11.4921 3.6491 11.6515C3.80851 11.8109 4.02472 11.9005 4.25017 11.9005ZM4.25017 15.3006C4.41829 15.3006 4.58263 15.2507 4.72242 15.1573C4.86221 15.0639 4.97116 14.9312 5.03549 14.7759C5.09983 14.6205 5.11667 14.4496 5.08387 14.2847C5.05107 14.1198 4.97011 13.9684 4.85123 13.8495C4.73235 13.7306 4.58089 13.6497 4.416 13.6169C4.25111 13.5841 4.0802 13.6009 3.92487 13.6652C3.76955 13.7296 3.63679 13.8385 3.54339 13.9783C3.44999 14.1181 3.40013 14.2824 3.40013 14.4506C3.40013 14.676 3.48969 14.8922 3.6491 15.0516C3.80851 15.211 4.02472 15.3006 4.25017 15.3006Z" fill="#424C5D"/>
</svg>
