<svg width="24" height="24" viewBox="0 0 24 24" fill="none" xmlns="http://www.w3.org/2000/svg">
<path fill-rule="evenodd" clip-rule="evenodd" d="M10.0544 2.34439C11.1756 1.38885 12.8248 1.38885 13.9461 2.34439L15.2175 3.42792C15.3777 3.56441 15.5768 3.6469 15.7866 3.66364L17.4518 3.79653C18.9204 3.91372 20.0865 5.07985 20.2037 6.54838L20.3366 8.21362C20.3533 8.42338 20.4358 8.62252 20.5723 8.78269L21.6558 10.0542C22.6114 11.1754 22.6114 12.8246 21.6558 13.9459L20.5723 15.2173C20.4358 15.3775 20.3533 15.5766 20.3366 15.7864L20.2037 17.4516C20.0865 18.9202 18.9204 20.0863 17.4518 20.2035L15.7866 20.3364C15.5768 20.3531 15.3777 20.4356 15.2175 20.5721L13.9461 21.6556C12.8248 22.6112 11.1756 22.6112 10.0544 21.6556L8.78289 20.5721C8.62272 20.4356 8.42358 20.3531 8.21382 20.3364L6.54858 20.2035C5.08005 20.0863 3.91392 18.9202 3.79673 17.4516L3.66384 15.7864C3.6471 15.5766 3.56461 15.3775 3.42812 15.2173L2.34459 13.9459C1.38904 12.8246 1.38904 11.1754 2.34459 10.0542L3.42812 8.78269C3.56461 8.62252 3.6471 8.42338 3.66384 8.21362L3.79673 6.54838C3.91392 5.07985 5.08005 3.91372 6.54858 3.79653L8.21382 3.66364C8.42358 3.6469 8.62272 3.56441 8.78289 3.42792L10.0544 2.34439ZM12.6488 3.86662C12.2751 3.5481 11.7253 3.5481 11.3516 3.86662L10.0801 4.95015C9.59963 5.35963 9.00221 5.60708 8.37291 5.6573L6.70767 5.79019C6.21816 5.82925 5.82945 6.21796 5.79039 6.70747L5.6575 8.37271C5.60728 9.00201 5.35982 9.59943 4.95035 10.0799L3.86682 11.3514C3.5483 11.7251 3.5483 12.2749 3.86682 12.6486L4.95035 13.9201C5.35982 14.4006 5.60728 14.998 5.6575 15.6273L5.79039 17.2925C5.82945 17.7821 6.21816 18.1708 6.70767 18.2098L8.37291 18.3427C9.00221 18.3929 9.59963 18.6404 10.0801 19.0499L11.3516 20.1334C11.7253 20.4519 12.2751 20.4519 12.6488 20.1334L13.9203 19.0499C14.4008 18.6404 14.9982 18.3929 15.6275 18.3427L17.2927 18.2098C17.7822 18.1708 18.171 17.7821 18.21 17.2925L18.3429 15.6273C18.3931 14.998 18.6406 14.4006 19.0501 13.9201L20.1336 12.6486C20.4521 12.2749 20.4521 11.7251 20.1336 11.3514L19.0501 10.0799C18.6406 9.59943 18.3931 9.00201 18.3429 8.37271L18.21 6.70747C18.171 6.21796 17.7822 5.82925 17.2927 5.79019L15.6275 5.6573C14.9982 5.60708 14.4008 5.35962 13.9203 4.95015L12.6488 3.86662Z" fill="#535763"/>
<path d="M11 9.5C11 10.3284 10.3284 11 9.5 11C8.67157 11 8 10.3284 8 9.5C8 8.67157 8.67157 8 9.5 8C10.3284 8 11 8.67157 11 9.5Z" fill="#535763"/>
<path d="M16 14.5C16 15.3284 15.3284 16 14.5 16C13.6716 16 13 15.3284 13 14.5C13 13.6716 13.6716 13 14.5 13C15.3284 13 16 13.6716 16 14.5Z" fill="#535763"/>
<path fill-rule="evenodd" clip-rule="evenodd" d="M15.1402 8.23177C15.5645 8.58534 15.6218 9.2159 15.2682 9.64018L10.2682 15.6402C9.91468 16.0645 9.28412 16.1218 8.85984 15.7682C8.43556 15.4147 8.37824 14.7841 8.7318 14.3598L13.7318 8.35981C14.0854 7.93553 14.7159 7.87821 15.1402 8.23177Z" fill="#535763"/>
</svg>
