<svg width="26" height="24" viewBox="0 0 26 24" fill="none" xmlns="http://www.w3.org/2000/svg">
<path d="M23.6115 2.40256C22.232 1.02268 20.4031 0.183723 18.4573 0.038269C16.5116 -0.107185 14.5783 0.450523 13.0089 1.60997C11.3557 0.380327 9.29802 -0.177251 7.25018 0.0495164C5.20233 0.276284 3.31647 1.27055 1.97235 2.8321C0.628229 4.39365 -0.0743004 6.40649 0.00623084 8.46528C0.086762 10.5241 0.944372 12.4759 2.40636 13.9277L12.0864 23.6077C12.2072 23.7295 12.3509 23.8261 12.5092 23.8921C12.6676 23.9581 12.8374 23.992 13.0089 23.992C13.1805 23.992 13.3503 23.9581 13.5086 23.8921C13.667 23.8261 13.8107 23.7295 13.9315 23.6077L23.6115 13.9277C24.3686 13.1711 24.9691 12.2728 25.3789 11.284C25.7886 10.2952 25.9995 9.23541 25.9995 8.16511C25.9995 7.09481 25.7886 6.035 25.3789 5.04623C24.9691 4.05747 24.3686 3.15913 23.6115 2.40256ZM21.7794 12.0956L13.0089 20.8531L4.23842 12.0956C3.46554 11.3195 2.93905 10.3325 2.72499 9.25829C2.51094 8.18412 2.61884 7.07066 3.03517 6.05758C3.45151 5.0445 4.15773 4.17692 5.06525 3.56368C5.97277 2.95043 7.04117 2.61882 8.13642 2.61046C9.59962 2.61404 11.0016 3.19819 12.0344 4.23462C12.1552 4.35641 12.2989 4.45307 12.4573 4.51904C12.6156 4.585 12.7854 4.61897 12.957 4.61897C13.1285 4.61897 13.2983 4.585 13.4567 4.51904C13.615 4.45307 13.7587 4.35641 13.8795 4.23462C14.9428 3.31324 16.3164 2.83023 17.7223 2.88335C19.1283 2.93646 20.4615 3.52174 21.4522 4.52072C22.443 5.5197 23.0172 6.85777 23.0586 8.26411C23.1001 9.67044 22.6057 11.04 21.6755 12.0956H21.7794Z" fill="#D13329"/>
</svg>
