<svg width="320" height="48" viewBox="0 0 320 48" fill="none" xmlns="http://www.w3.org/2000/svg">
<path d="M23 18.105C22.419 18.105 21.943 17.645 21.943 17.085V15.02C21.943 14.459 22.419 14 23 14C23.581 14 24.057 14.459 24.057 15.02V17.085C24.057 17.645 23.581 18.105 23 18.105ZM30.744 25.575C30.744 25.015 31.194 24.555 31.802 24.555H33.942C34.524 24.555 35 25.015 35 25.575C35 26.136 34.524 26.595 33.943 26.595H31.802C31.22 26.595 30.744 26.136 30.744 25.575ZM12.057 26.595C11.476 26.595 11 26.136 11 25.575C11 25.015 11.476 24.555 12.057 24.555H14.198C14.78 24.555 15.256 25.015 15.256 25.575C15.256 26.136 14.78 26.595 14.198 26.595H12.058H12.057ZM29.211 20.603C28.947 20.603 28.683 20.501 28.445 20.297C28.3449 20.2043 28.265 20.0919 28.2104 19.9669C28.1557 19.8419 28.1275 19.7069 28.1275 19.5705C28.1275 19.4341 28.1557 19.2991 28.2104 19.1741C28.265 19.0491 28.3449 18.9367 28.445 18.844L29.978 17.365C30.1797 17.1686 30.45 17.0587 30.7315 17.0587C31.013 17.0587 31.2833 17.1686 31.485 17.365C31.5853 17.4577 31.6653 17.5701 31.72 17.6952C31.7748 17.8204 31.803 17.9554 31.803 18.092C31.803 18.2286 31.7748 18.3636 31.72 18.4888C31.6653 18.6139 31.5853 18.7263 31.485 18.819L29.952 20.297C29.7547 20.4916 29.4891 20.6014 29.212 20.603H29.211ZM16.048 20.297L14.49 18.82C14.3897 18.7273 14.3097 18.6149 14.255 18.4898C14.2002 18.3646 14.172 18.2296 14.172 18.093C14.172 17.9564 14.2002 17.8214 14.255 17.6962C14.3097 17.5711 14.3897 17.4587 14.49 17.366C14.6917 17.1696 14.962 17.0597 15.2435 17.0597C15.525 17.0597 15.7953 17.1696 15.997 17.366L17.53 18.846C17.63 18.9387 17.7097 19.051 17.7642 19.1759C17.8188 19.3008 17.8469 19.4357 17.8469 19.572C17.8469 19.7083 17.8188 19.8432 17.7642 19.9681C17.7097 20.093 17.63 20.2053 17.53 20.298C17.3327 20.4926 17.0671 20.6024 16.79 20.604C16.525 20.604 16.26 20.502 16.05 20.298L16.048 20.297ZM17.714 27.895C17.3712 27.1785 17.1905 26.3953 17.185 25.601C17.185 22.516 19.802 19.991 23 19.991C26.198 19.991 28.815 22.516 28.815 25.601C28.815 26.391 28.63 27.181 28.286 27.921C28.128 28.278 27.731 28.507 27.335 28.507C27.176 28.507 27.018 28.457 26.885 28.405C26.357 28.175 26.119 27.564 26.357 27.054C26.595 26.594 26.7 26.085 26.7 25.575C26.7 23.612 25.035 22.005 23 22.005C20.965 22.005 19.3 23.612 19.3 25.575C19.3 26.085 19.432 26.595 19.643 27.054C19.881 27.564 19.643 28.176 19.115 28.405C18.585 28.635 17.952 28.405 17.714 27.895ZM33.943 29.96C34.524 29.96 35 30.42 35 30.98C35 31.541 34.524 32 33.943 32H12.057C11.476 32 11 31.541 11 30.98C11 30.42 11.476 29.96 12.057 29.96H33.943Z" fill="#75839D"/>
<path d="M114 16.185C117.198 16.185 119.815 18.802 119.815 22C119.815 25.198 117.198 27.815 114 27.815C110.802 27.815 108.185 25.198 108.185 22C108.185 18.802 110.802 16.185 114 16.185ZM114 25.7C116.035 25.7 117.7 24.035 117.7 22C117.7 19.965 116.035 18.3 114 18.3C113.02 18.3029 112.08 18.6937 111.387 19.3869C110.694 20.0802 110.303 21.0196 110.3 22C110.3 24.035 111.965 25.7 114 25.7ZM114 14.256C113.419 14.256 112.943 13.806 112.943 13.198V11.058C112.944 10.7777 113.055 10.5091 113.253 10.3108C113.451 10.1125 113.72 10.0008 114 10C114.28 10.0008 114.548 10.1124 114.747 10.3105C114.945 10.5085 115.056 10.7769 115.057 11.057V13.198C115.056 13.4783 114.945 13.7469 114.747 13.9452C114.549 14.1435 114.28 14.2552 114 14.256ZM124.943 20.943C125.223 20.9438 125.491 21.0554 125.69 21.2535C125.888 21.4515 125.999 21.7199 126 22C125.999 22.2801 125.888 22.5485 125.69 22.7465C125.491 22.9446 125.223 23.0562 124.943 23.057H122.802C122.522 23.0565 122.253 22.945 122.055 22.7469C121.857 22.5488 121.745 22.2803 121.744 22C121.745 21.7197 121.857 21.4512 122.055 21.2531C122.253 21.055 122.522 20.9435 122.802 20.943H124.942H124.943ZM114 29.744C114.581 29.744 115.057 30.194 115.057 30.802V32.942C115.056 33.2223 114.945 33.4909 114.747 33.6892C114.549 33.8875 114.28 33.9992 114 34C113.72 33.9992 113.452 33.8876 113.253 33.6895C113.055 33.4915 112.944 33.2231 112.943 32.943V30.802C112.944 30.5217 113.055 30.2531 113.253 30.0548C113.451 29.8565 113.72 29.7448 114 29.744ZM106.256 22C106.256 22.581 105.806 23.057 105.198 23.057H103.058C102.778 23.0565 102.509 22.945 102.311 22.7469C102.113 22.5488 102.001 22.2803 102 22C102.001 21.7199 102.112 21.4515 102.31 21.2535C102.509 21.0554 102.777 20.9438 103.057 20.943H105.198C105.478 20.9435 105.747 21.055 105.945 21.2531C106.143 21.4512 106.255 21.7197 106.256 22ZM120.21 16.846C119.946 16.846 119.682 16.74 119.444 16.529C119.344 16.4309 119.264 16.3137 119.209 16.1843C119.155 16.0549 119.127 15.9159 119.127 15.7755C119.127 15.6351 119.155 15.4961 119.209 15.3667C119.264 15.2373 119.344 15.1201 119.444 15.022L120.977 13.489C121.075 13.3885 121.192 13.3087 121.322 13.2542C121.451 13.1996 121.59 13.1716 121.73 13.1716C121.871 13.1716 122.01 13.1996 122.139 13.2542C122.269 13.3087 122.386 13.3885 122.484 13.489C122.584 13.5871 122.664 13.7043 122.719 13.8337C122.773 13.9631 122.801 14.1021 122.801 14.2425C122.801 14.3829 122.773 14.5219 122.719 14.6513C122.664 14.7807 122.584 14.8979 122.484 14.996L120.951 16.529C120.855 16.6282 120.74 16.7073 120.613 16.7617C120.486 16.8161 120.349 16.8448 120.211 16.846H120.21ZM120.95 27.471L122.457 29.004C122.557 29.1021 122.637 29.2193 122.692 29.3487C122.746 29.4781 122.774 29.6171 122.774 29.7575C122.774 29.8979 122.746 30.0369 122.692 30.1663C122.637 30.2957 122.557 30.4129 122.457 30.511C122.361 30.6102 122.246 30.6893 122.119 30.7437C121.992 30.7981 121.855 30.8268 121.717 30.828C121.453 30.828 121.188 30.722 120.977 30.511L119.444 28.978C119.344 28.8799 119.264 28.7627 119.209 28.6333C119.155 28.5039 119.127 28.3649 119.127 28.2245C119.127 28.0841 119.155 27.9451 119.209 27.8157C119.264 27.6863 119.344 27.5691 119.444 27.471C119.542 27.3705 119.659 27.2907 119.789 27.2362C119.918 27.1816 120.057 27.1536 120.198 27.1536C120.338 27.1536 120.477 27.1816 120.606 27.2362C120.736 27.2907 120.853 27.3705 120.951 27.471H120.95ZM107.047 27.471C107.142 27.3708 107.257 27.291 107.384 27.2365C107.512 27.182 107.649 27.1539 107.787 27.1539C107.925 27.1539 108.062 27.182 108.19 27.2365C108.317 27.291 108.432 27.3708 108.527 27.471C108.627 27.5691 108.707 27.6863 108.762 27.8157C108.816 27.9451 108.844 28.0841 108.844 28.2245C108.844 28.3649 108.816 28.5039 108.762 28.6333C108.707 28.7627 108.627 28.8799 108.527 28.978L106.995 30.511C106.899 30.6102 106.784 30.6893 106.657 30.7437C106.53 30.7981 106.393 30.8268 106.255 30.828C105.99 30.828 105.725 30.722 105.515 30.511C105.415 30.4129 105.335 30.2957 105.28 30.1663C105.226 30.0369 105.198 29.8979 105.198 29.7575C105.198 29.6171 105.226 29.4781 105.28 29.3487C105.335 29.2193 105.415 29.1021 105.515 29.004L107.047 27.471ZM107.047 16.529L105.49 14.996C105.39 14.8979 105.31 14.7807 105.255 14.6513C105.201 14.5219 105.173 14.3829 105.173 14.2425C105.173 14.1021 105.201 13.9631 105.255 13.8337C105.31 13.7043 105.39 13.5871 105.49 13.489C105.588 13.3885 105.705 13.3087 105.835 13.2542C105.964 13.1996 106.103 13.1716 106.244 13.1716C106.384 13.1716 106.523 13.1996 106.652 13.2542C106.782 13.3087 106.899 13.3885 106.997 13.489L108.53 15.022C108.63 15.1201 108.71 15.2373 108.765 15.3667C108.819 15.4961 108.847 15.6351 108.847 15.7755C108.847 15.9159 108.819 16.0549 108.765 16.1843C108.71 16.3137 108.63 16.4309 108.53 16.529C108.434 16.6282 108.319 16.7073 108.192 16.7617C108.065 16.8161 107.928 16.8448 107.79 16.846C107.651 16.8473 107.514 16.8198 107.387 16.7653C107.259 16.7107 107.145 16.6302 107.05 16.529H107.047Z" fill="#0061FF"/>
<line x1="92" y1="47" x2="136" y2="47" stroke="#0061FF" stroke-width="2"/>
<path d="M205 21.135C204.419 21.135 203.943 20.699 203.943 20.108V18.028C203.943 17.461 204.419 17 205 17C205.581 17 206.057 17.462 206.057 18.027V20.107C206.057 20.673 205.581 21.135 205 21.135ZM211.211 23.601C210.927 23.5948 210.654 23.4853 210.445 23.293C210.345 23.1992 210.265 23.0858 210.21 22.9599C210.156 22.834 210.128 22.6982 210.128 22.561C210.128 22.4238 210.156 22.288 210.21 22.1621C210.265 22.0362 210.345 21.9228 210.445 21.829L211.978 20.339C212.179 20.1414 212.45 20.0307 212.732 20.0307C213.013 20.0307 213.284 20.1414 213.485 20.339C213.585 20.4328 213.665 20.5462 213.72 20.6721C213.774 20.798 213.802 20.9338 213.802 21.071C213.802 21.2082 213.774 21.344 213.72 21.4699C213.665 21.5958 213.585 21.7092 213.485 21.803L211.952 23.293C211.755 23.4887 211.489 23.5993 211.212 23.601H211.211ZM198.048 23.293L196.489 21.803C196.389 21.7092 196.309 21.5958 196.254 21.4699C196.2 21.344 196.172 21.2082 196.172 21.071C196.172 20.9338 196.2 20.798 196.254 20.6721C196.309 20.5462 196.389 20.4328 196.489 20.339C196.69 20.1414 196.961 20.0307 197.242 20.0307C197.524 20.0307 197.795 20.1414 197.996 20.339L199.529 21.829C199.629 21.9228 199.709 22.0362 199.764 22.1621C199.818 22.288 199.846 22.4238 199.846 22.561C199.846 22.6982 199.818 22.834 199.764 22.9599C199.709 23.0858 199.629 23.1992 199.529 23.293C199.332 23.4887 199.066 23.5993 198.789 23.601C198.524 23.601 198.233 23.498 198.049 23.293H198.048ZM215.943 29.945C216.524 29.945 217 30.408 217 30.973C217 31.538 216.524 32 215.943 32H194.057C193.476 32 193 31.538 193 30.973C193 30.408 193.476 29.945 194.057 29.945H215.943ZM200.137 28.43C199.555 28.301 199.211 27.736 199.423 27.171C200.083 24.68 202.41 22.933 205.053 22.933C207.696 22.933 210.022 24.68 210.683 27.171C210.815 27.736 210.471 28.276 209.916 28.43C209.837 28.455 209.731 28.455 209.652 28.455C209.176 28.455 208.753 28.147 208.622 27.685C208.198 26.092 206.718 24.988 205.026 24.988C203.335 24.988 201.855 26.092 201.432 27.685C201.358 27.955 201.181 28.1849 200.938 28.3244C200.695 28.464 200.407 28.5019 200.137 28.43Z" fill="#75839D"/>
<path d="M297.438 32C294.441 32 291.625 30.358 290.126 27.752C287.801 23.687 289.196 18.476 293.201 16.13C294.576 15.323 296.156 14.9338 297.748 15.01C298.136 15.036 298.472 15.244 298.627 15.583C298.807 15.922 298.756 16.339 298.549 16.651C297.257 18.528 297.154 21.029 298.291 22.984C299.351 24.808 301.288 25.954 303.406 25.954C303.561 25.954 303.716 25.954 303.871 25.928C304.259 25.902 304.621 26.085 304.827 26.398C305.034 26.71 305.06 27.127 304.879 27.466C304.142 28.8906 303.012 30.0747 301.624 30.879C300.351 31.6126 298.908 31.9991 297.438 32ZM295.94 17.25C295.34 17.3869 294.765 17.6156 294.234 17.928C291.212 19.726 290.152 23.661 291.91 26.71C292.47 27.6827 293.275 28.491 294.246 29.0536C295.217 29.6162 296.318 29.9133 297.44 29.915C298.557 29.9167 299.654 29.6198 300.617 29.055C301.154 28.7465 301.641 28.3604 302.064 27.909C300.916 27.7013 299.827 27.2465 298.872 26.576C297.917 25.9055 297.12 25.0354 296.534 24.026C295.346 21.941 295.166 19.466 295.941 17.251L295.94 17.25Z" fill="#75839D"/>
<path d="M320 47H0V49H320V47Z" fill="#75839D" mask="url(#path-1-inside-1_1513_6234)"/>
</svg>
